<svg xmlns="http://www.w3.org/2000/svg" width="1000" height="800"><path fill="#00030E" d="M0 0h1000v800H0z" opacity=".8"/><g fill="#FFF"><path d="M176.8 221.2c2 1.2 5 2.3 8.1 2.3 4.6 0 7.3-2.4 7.3-6 0-3.3-1.9-5.1-6.6-7-5.7-2-9.3-5-9.3-9.9 0-5.5 4.5-9.5 11.3-9.5 3.6 0 6.2.8 7.7 1.7l-1.2 3.7c-1.1-.6-3.5-1.7-6.7-1.7-4.8 0-6.6 2.9-6.6 5.3 0 3.3 2.1 4.9 7 6.8 5.9 2.3 8.9 5.1 8.9 10.3 0 5.4-4 10.1-12.3 10.1-3.4 0-7.1-1-8.9-2.2l1.3-3.9zM209.7 195.5H199v-3.8h26v3.8h-10.7v31.2h-4.6v-31.2zM257.5 208.8c0 12.1-7.3 18.5-16.3 18.5-9.3 0-15.8-7.2-15.8-17.8 0-11.1 6.9-18.4 16.3-18.4 9.6 0 15.8 7.3 15.8 17.7zm-27.2.6c0 7.5 4.1 14.2 11.2 14.2 7.2 0 11.2-6.6 11.2-14.6 0-7-3.6-14.2-11.2-14.2-7.5 0-11.2 6.9-11.2 14.6zM263.4 192.1c2.2-.4 5-.7 8.7-.7 4.5 0 7.7 1 9.8 2.9 1.9 1.7 3.1 4.2 3.1 7.3 0 3.2-.9 5.7-2.7 7.5-2.4 2.5-6.3 3.8-10.7 3.8-1.4 0-2.6-.1-3.6-.3v14h-4.5v-34.5zm4.5 16.9c1 .3 2.2.4 3.7.4 5.5 0 8.8-2.7 8.8-7.5 0-4.6-3.3-6.9-8.3-6.9-2 0-3.5.2-4.3.4V209zM302 191.7h4.5V223h15v3.8H302v-35.1zM354.5 208.8c0 12.1-7.3 18.5-16.3 18.5-9.3 0-15.8-7.2-15.8-17.8 0-11.1 6.9-18.4 16.3-18.4 9.6 0 15.8 7.3 15.8 17.7zm-27.2.6c0 7.5 4.1 14.2 11.2 14.2 7.2 0 11.2-6.6 11.2-14.6 0-7-3.6-14.2-11.2-14.2-7.4 0-11.2 6.9-11.2 14.6zM390.3 208.8c0 12.1-7.3 18.5-16.3 18.5-9.3 0-15.8-7.2-15.8-17.8 0-11.1 6.9-18.4 16.3-18.4 9.6 0 15.8 7.3 15.8 17.7zm-27.2.6c0 7.5 4.1 14.2 11.2 14.2 7.2 0 11.2-6.6 11.2-14.6 0-7-3.6-14.2-11.2-14.2-7.4 0-11.2 6.9-11.2 14.6zM396.2 191.7h4.5v16.9h.2c.9-1.4 1.9-2.6 2.8-3.7l10.7-13.2h5.6l-12.7 14.9 13.7 20.2h-5.4l-11.5-17.2-3.3 3.8v13.4h-4.5v-35.1zM428.9 191.7v35h-4.5v-35h4.5zM436.8 226.7v-35h4.9l11.2 17.7c2.6 4.1 4.6 7.8 6.3 11.4l.1-.1c-.4-4.7-.5-8.9-.5-14.4v-14.7h4.3v35h-4.6l-11.1-17.8c-2.4-3.9-4.8-7.9-6.6-11.7l-.2.1c.3 4.4.4 8.6.4 14.5v15h-4.2zM497.7 225.2c-2 .7-6 1.9-10.8 1.9-5.3 0-9.7-1.4-13.1-4.6-3-2.9-4.9-7.6-4.9-13.1.1-10.5 7.2-18.1 19-18.1 4.1 0 7.2.9 8.7 1.6l-1.1 3.7c-1.9-.8-4.2-1.5-7.7-1.5-8.5 0-14.1 5.3-14.1 14.1 0 8.9 5.4 14.1 13.5 14.1 3 0 5-.4 6-.9V212h-7.1v-3.6h11.5v16.8zM521.3 215.7l-3.6 11H513l11.9-35h5.5l12 35h-4.8l-3.7-11h-12.6zm11.5-3.5l-3.4-10.1c-.8-2.3-1.3-4.4-1.8-6.4h-.1c-.5 2.1-1.1 4.2-1.8 6.3l-3.4 10.1h10.5zM550.1 195.5h-10.7v-3.8h25.9v3.8h-10.7v31.2H550v-31.2zM609.9 211.3c-.3-4.9-.6-10.8-.5-15.1h-.2c-1.2 4.1-2.7 8.5-4.4 13.3l-6.2 17h-3.4l-5.7-16.7c-1.7-4.9-3.1-9.5-4.1-13.6h-.1c-.1 4.4-.4 10.2-.7 15.5l-.9 15h-4.3l2.4-35h5.8l6 17c1.5 4.3 2.7 8.2 3.5 11.8h.2c.9-3.5 2.1-7.4 3.7-11.8l6.2-17h5.8l2.2 35h-4.4l-.9-15.4zM629.9 226.7v-14.9l-11.1-20.2h5.1l4.9 9.7c1.4 2.7 2.4 4.8 3.5 7.2h.1c1-2.3 2.2-4.6 3.5-7.2l5-9.7h5.1l-11.8 20.1v14.9h-4.3zM660.7 221.2c2 1.2 5 2.3 8.1 2.3 4.6 0 7.3-2.4 7.3-6 0-3.3-1.9-5.1-6.6-7-5.7-2-9.3-5-9.3-9.9 0-5.5 4.5-9.5 11.3-9.5 3.6 0 6.2.8 7.7 1.7l-1.2 3.7c-1.1-.6-3.5-1.7-6.7-1.7-4.8 0-6.6 2.9-6.6 5.3 0 3.3 2.1 4.9 7 6.8 5.9 2.3 8.9 5.1 8.9 10.3 0 5.4-4 10.1-12.3 10.1-3.4 0-7.1-1-8.9-2.2l1.3-3.9zM711.4 225.6c-1.7.8-5 1.7-9.3 1.7-9.9 0-17.3-6.2-17.3-17.7 0-11 7.4-18.4 18.3-18.4 4.4 0 7.1.9 8.3 1.6l-1.1 3.7c-1.7-.8-4.2-1.5-7.1-1.5-8.2 0-13.7 5.3-13.7 14.5 0 8.6 4.9 14.1 13.5 14.1 2.8 0 5.6-.6 7.4-1.5l1 3.5zM717.1 192.2c2.3-.5 5.6-.7 8.7-.7 4.8 0 8 .9 10.1 2.9 1.8 1.6 2.8 4 2.8 6.7 0 4.6-2.9 7.7-6.6 8.9v.2c2.7.9 4.3 3.4 5.1 7.1 1.1 4.9 2 8.3 2.7 9.6h-4.7c-.6-1-1.4-4-2.3-8.4-1-4.8-2.9-6.7-7-6.8h-4.3v15.2h-4.5v-34.7zm4.5 15.9h4.6c4.8 0 7.9-2.7 7.9-6.7 0-4.5-3.3-6.5-8.1-6.6-2.2 0-3.7.2-4.5.4v12.9zM763.2 210.3h-13.6v12.6h15.2v3.8h-19.7v-35H764v3.8h-14.4v11.1h13.6v3.7zM788.8 210.3h-13.6v12.6h15.2v3.8h-19.7v-35h18.9v3.8h-14.4v11.1h13.6v3.7zM796.2 226.7v-35h4.9l11.2 17.7c2.6 4.1 4.6 7.8 6.3 11.4l.1-.1c-.4-4.7-.5-8.9-.5-14.4v-14.7h4.3v35H818l-11.1-17.8c-2.4-3.9-4.8-7.9-6.6-11.7l-.2.1c.3 4.4.4 8.6.4 14.5v15h-4.3z"/></g><g fill="#FFF"><path d="M176.8 409.8c2 1.2 5 2.3 8.1 2.3 4.6 0 7.3-2.4 7.3-6 0-3.3-1.9-5.1-6.6-7-5.7-2-9.3-5-9.3-9.9 0-5.5 4.5-9.5 11.3-9.5 3.6 0 6.2.8 7.7 1.7l-1.2 3.7c-1.1-.6-3.5-1.7-6.7-1.7-4.8 0-6.6 2.9-6.6 5.3 0 3.3 2.1 4.9 7 6.8 5.9 2.3 8.9 5.1 8.9 10.3 0 5.4-4 10.1-12.3 10.1-3.4 0-7.1-1-8.9-2.2l1.3-3.9zM209.7 384.1H199v-3.8h26v3.8h-10.7v31.2h-4.6v-31.2zM257.5 397.4c0 12.1-7.3 18.5-16.3 18.5-9.3 0-15.8-7.2-15.8-17.8 0-11.1 6.9-18.4 16.3-18.4 9.6-.1 15.8 7.3 15.8 17.7zm-27.2.5c0 7.5 4.1 14.2 11.2 14.2 7.2 0 11.2-6.6 11.2-14.6 0-7-3.6-14.2-11.2-14.2-7.5 0-11.2 6.9-11.2 14.6zM263.4 380.6c2.2-.4 5-.7 8.7-.7 4.5 0 7.7 1 9.8 2.9 1.9 1.7 3.1 4.2 3.1 7.3 0 3.2-.9 5.7-2.7 7.5-2.4 2.5-6.3 3.8-10.7 3.8-1.4 0-2.6-.1-3.6-.3v14h-4.5v-34.5zm4.5 16.9c1 .3 2.2.4 3.7.4 5.5 0 8.8-2.7 8.8-7.5 0-4.6-3.3-6.9-8.3-6.9-2 0-3.5.2-4.3.4v13.6zM302 380.2h4.5v31.3h15v3.8H302v-35.1zM354.5 397.4c0 12.1-7.3 18.5-16.3 18.5-9.3 0-15.8-7.2-15.8-17.8 0-11.1 6.9-18.4 16.3-18.4 9.6-.1 15.8 7.3 15.8 17.7zm-27.2.5c0 7.5 4.1 14.2 11.2 14.2 7.2 0 11.2-6.6 11.2-14.6 0-7-3.6-14.2-11.2-14.2-7.4 0-11.2 6.9-11.2 14.6zM390.3 397.4c0 12.1-7.3 18.5-16.3 18.5-9.3 0-15.8-7.2-15.8-17.8 0-11.1 6.9-18.4 16.3-18.4 9.6-.1 15.8 7.3 15.8 17.7zm-27.2.5c0 7.5 4.1 14.2 11.2 14.2 7.2 0 11.2-6.6 11.2-14.6 0-7-3.6-14.2-11.2-14.2-7.4 0-11.2 6.9-11.2 14.6zM396.2 380.2h4.5v16.9h.2c.9-1.4 1.9-2.6 2.8-3.7l10.7-13.2h5.6l-12.7 14.9 13.7 20.2h-5.4L404.1 398l-3.3 3.8v13.4h-4.5v-35zM428.9 380.2v35h-4.5v-35h4.5zM436.8 415.3v-35h4.9l11.2 17.7c2.6 4.1 4.6 7.8 6.3 11.4l.1-.1c-.4-4.7-.5-8.9-.5-14.4v-14.7h4.3v35h-4.6l-11.1-17.8c-2.4-3.9-4.8-7.9-6.6-11.7l-.2.1c.3 4.4.4 8.6.4 14.5v15h-4.2zM497.7 413.7c-2 .7-6 1.9-10.8 1.9-5.3 0-9.7-1.4-13.1-4.6-3-2.9-4.9-7.6-4.9-13.1.1-10.5 7.2-18.1 19-18.1 4.1 0 7.2.9 8.7 1.6l-1.1 3.7c-1.9-.8-4.2-1.5-7.7-1.5-8.5 0-14.1 5.3-14.1 14.1 0 8.9 5.4 14.1 13.5 14.1 3 0 5-.4 6-.9v-10.5h-7.1v-3.6h11.5v16.9zM521.3 404.2l-3.6 11H513l11.9-35h5.5l12 35h-4.8l-3.7-11h-12.6zm11.5-3.5l-3.4-10.1c-.8-2.3-1.3-4.4-1.8-6.4h-.1c-.5 2.1-1.1 4.2-1.8 6.3l-3.4 10.1h10.5zM550.1 384.1h-10.7v-3.8h25.9v3.8h-10.7v31.2H550v-31.2zM609.9 399.9c-.3-4.9-.6-10.8-.5-15.1h-.2c-1.2 4.1-2.7 8.5-4.4 13.3l-6.2 17h-3.4l-5.7-16.7c-1.7-4.9-3.1-9.5-4.1-13.6h-.1c-.1 4.4-.4 10.2-.7 15.5l-.9 15h-4.3l2.4-35h5.8l6 17c1.5 4.3 2.7 8.2 3.5 11.8h.2c.9-3.5 2.1-7.4 3.7-11.8l6.2-17h5.8l2.2 35h-4.4l-.9-15.4zM629.9 415.3v-14.9l-11.1-20.2h5.1l4.9 9.7c1.4 2.7 2.4 4.8 3.5 7.2h.1c1-2.3 2.2-4.6 3.5-7.2l5-9.7h5.1l-11.8 20.1v14.9h-4.3zM660.7 409.8c2 1.2 5 2.3 8.1 2.3 4.6 0 7.3-2.4 7.3-6 0-3.3-1.9-5.1-6.6-7-5.7-2-9.3-5-9.3-9.9 0-5.5 4.5-9.5 11.3-9.5 3.6 0 6.2.8 7.7 1.7l-1.2 3.7c-1.1-.6-3.5-1.7-6.7-1.7-4.8 0-6.6 2.9-6.6 5.3 0 3.3 2.1 4.9 7 6.8 5.9 2.3 8.9 5.1 8.9 10.3 0 5.4-4 10.1-12.3 10.1-3.4 0-7.1-1-8.9-2.2l1.3-3.9zM711.4 414.1c-1.7.8-5 1.7-9.3 1.7-9.9 0-17.3-6.2-17.3-17.7 0-11 7.4-18.4 18.3-18.4 4.4 0 7.1.9 8.3 1.6l-1.1 3.7c-1.7-.8-4.2-1.5-7.1-1.5-8.2 0-13.7 5.3-13.7 14.5 0 8.6 4.9 14.1 13.5 14.1 2.8 0 5.6-.6 7.4-1.5l1 3.5zM717.1 380.7c2.3-.5 5.6-.7 8.7-.7 4.8 0 8 .9 10.1 2.9 1.8 1.6 2.8 4 2.8 6.7 0 4.6-2.9 7.7-6.6 8.9v.2c2.7.9 4.3 3.4 5.1 7.1 1.1 4.9 2 8.3 2.7 9.6h-4.7c-.6-1-1.4-4-2.3-8.4-1-4.8-2.9-6.7-7-6.8h-4.3v15.2h-4.5v-34.7zm4.5 15.9h4.6c4.8 0 7.9-2.7 7.9-6.7 0-4.5-3.3-6.5-8.1-6.6-2.2 0-3.7.2-4.5.4v12.9zM763.2 398.8h-13.6v12.6h15.2v3.8h-19.7v-35H764v3.8h-14.4v11.1h13.6v3.7zM788.8 398.8h-13.6v12.6h15.2v3.8h-19.7v-35h18.9v3.8h-14.4v11.1h13.6v3.7zM796.2 415.3v-35h4.9l11.2 17.7c2.6 4.1 4.6 7.8 6.3 11.4l.1-.1c-.4-4.7-.5-8.9-.5-14.4v-14.7h4.3v35H818l-11.1-17.8c-2.4-3.9-4.8-7.9-6.6-11.7l-.2.1c.3 4.4.4 8.6.4 14.5v15h-4.3z"/></g><g fill="#FFF"><path d="M176.8 609.5c2 1.2 5 2.3 8.1 2.3 4.6 0 7.3-2.4 7.3-6 0-3.3-1.9-5.1-6.6-7-5.7-2-9.3-5-9.3-9.9 0-5.5 4.5-9.5 11.3-9.5 3.6 0 6.2.8 7.7 1.7l-1.2 3.7c-1.1-.6-3.5-1.7-6.7-1.7-4.8 0-6.6 2.9-6.6 5.3 0 3.3 2.1 4.9 7 6.8 5.9 2.3 8.9 5.1 8.9 10.3 0 5.4-4 10.1-12.3 10.1-3.4 0-7.1-1-8.9-2.2l1.3-3.9zM209.7 583.8H199V580h26v3.8h-10.7V615h-4.6v-31.2zM257.5 597.1c0 12.1-7.3 18.5-16.3 18.5-9.3 0-15.8-7.2-15.8-17.8 0-11.1 6.9-18.4 16.3-18.4 9.6 0 15.8 7.3 15.8 17.7zm-27.2.6c0 7.5 4.1 14.2 11.2 14.2 7.2 0 11.2-6.6 11.2-14.6 0-7-3.6-14.2-11.2-14.2-7.5 0-11.2 6.9-11.2 14.6zM263.4 580.4c2.2-.4 5-.7 8.7-.7 4.5 0 7.7 1 9.8 2.9 1.9 1.7 3.1 4.2 3.1 7.3 0 3.2-.9 5.7-2.7 7.5-2.4 2.5-6.3 3.8-10.7 3.8-1.4 0-2.6-.1-3.6-.3v14h-4.5v-34.5zm4.5 16.9c1 .3 2.2.4 3.7.4 5.5 0 8.8-2.7 8.8-7.5 0-4.6-3.3-6.9-8.3-6.9-2 0-3.5.2-4.3.4v13.6zM302 580h4.5v31.3h15v3.8H302V580zM354.5 597.1c0 12.1-7.3 18.5-16.3 18.5-9.3 0-15.8-7.2-15.8-17.8 0-11.1 6.9-18.4 16.3-18.4 9.6 0 15.8 7.3 15.8 17.7zm-27.2.6c0 7.5 4.1 14.2 11.2 14.2 7.2 0 11.2-6.6 11.2-14.6 0-7-3.6-14.2-11.2-14.2-7.4 0-11.2 6.9-11.2 14.6zM390.3 597.1c0 12.1-7.3 18.5-16.3 18.5-9.3 0-15.8-7.2-15.8-17.8 0-11.1 6.9-18.4 16.3-18.4 9.6 0 15.8 7.3 15.8 17.7zm-27.2.6c0 7.5 4.1 14.2 11.2 14.2 7.2 0 11.2-6.6 11.2-14.6 0-7-3.6-14.2-11.2-14.2-7.4 0-11.2 6.9-11.2 14.6zM396.2 580h4.5v16.9h.2c.9-1.4 1.9-2.6 2.8-3.7l10.7-13.2h5.6l-12.7 14.9L421 615h-5.4l-11.5-17.2-3.3 3.8V615h-4.5v-35zM428.9 580v35h-4.5v-35h4.5zM436.8 615v-35h4.9l11.2 17.7c2.6 4.1 4.6 7.8 6.3 11.4l.1-.1c-.4-4.7-.5-8.9-.5-14.4V580h4.3v35h-4.6l-11.1-17.8c-2.4-3.9-4.8-7.9-6.6-11.7l-.2.1c.3 4.4.4 8.6.4 14.5v15h-4.2zM497.7 613.5c-2 .7-6 1.9-10.8 1.9-5.3 0-9.7-1.4-13.1-4.6-3-2.9-4.9-7.6-4.9-13.1.1-10.5 7.2-18.1 19-18.1 4.1 0 7.2.9 8.7 1.6l-1.1 3.7c-1.9-.8-4.2-1.5-7.7-1.5-8.5 0-14.1 5.3-14.1 14.1 0 8.9 5.4 14.1 13.5 14.1 3 0 5-.4 6-.9v-10.5h-7.1v-3.6h11.5v16.9zM521.3 604l-3.6 11H513l11.9-35h5.5l12 35h-4.8l-3.7-11h-12.6zm11.5-3.5l-3.4-10.1c-.8-2.3-1.3-4.4-1.8-6.4h-.1c-.5 2.1-1.1 4.2-1.8 6.3l-3.4 10.1h10.5zM550.1 583.8h-10.7V580h25.9v3.8h-10.7V615H550v-31.2zM609.9 599.6c-.3-4.9-.6-10.8-.5-15.1h-.2c-1.2 4.1-2.7 8.5-4.4 13.3l-6.2 17h-3.4l-5.7-16.7c-1.7-4.9-3.1-9.5-4.1-13.6h-.1c-.1 4.4-.4 10.2-.7 15.5l-.9 15h-4.3l2.4-35h5.8l6 17c1.5 4.3 2.7 8.2 3.5 11.8h.2c.9-3.5 2.1-7.4 3.7-11.8l6.2-17h5.8l2.2 35h-4.4l-.9-15.4zM629.9 615v-14.9l-11-20.1h5.1l4.9 9.7c1.4 2.7 2.4 4.8 3.5 7.2h.1c1-2.3 2.2-4.6 3.5-7.2l5-9.7h5.1l-11.8 20.1V615h-4.4zM660.7 609.5c2 1.2 5 2.3 8.1 2.3 4.6 0 7.3-2.4 7.3-6 0-3.3-1.9-5.1-6.6-7-5.7-2-9.3-5-9.3-9.9 0-5.5 4.5-9.5 11.3-9.5 3.6 0 6.2.8 7.7 1.7l-1.2 3.7c-1.1-.6-3.5-1.7-6.7-1.7-4.8 0-6.6 2.9-6.6 5.3 0 3.3 2.1 4.9 7 6.8 5.9 2.3 8.9 5.1 8.9 10.3 0 5.4-4 10.1-12.3 10.1-3.4 0-7.1-1-8.9-2.2l1.3-3.9zM711.4 613.9c-1.7.8-5 1.7-9.3 1.7-9.9 0-17.3-6.2-17.3-17.7 0-11 7.4-18.4 18.3-18.4 4.4 0 7.1.9 8.3 1.6l-1.1 3.7c-1.7-.8-4.2-1.5-7.1-1.5-8.2 0-13.7 5.3-13.7 14.5 0 8.6 4.9 14.1 13.5 14.1 2.8 0 5.6-.6 7.4-1.5l1 3.5zM717.1 580.4c2.3-.5 5.6-.7 8.7-.7 4.8 0 8 .9 10.1 2.9 1.8 1.6 2.8 4 2.8 6.7 0 4.6-2.9 7.7-6.6 8.9v.2c2.7.9 4.3 3.4 5.1 7.1 1.1 4.9 2 8.3 2.7 9.6h-4.7c-.6-1-1.4-4-2.3-8.4-1-4.8-2.9-6.7-7-6.8h-4.3V615h-4.5v-34.6zm4.5 16h4.6c4.8 0 7.9-2.7 7.9-6.7 0-4.5-3.3-6.5-8.1-6.6-2.2 0-3.7.2-4.5.4v12.9zM763.2 598.6h-13.6v12.6h15.2v3.8h-19.7v-35H764v3.8h-14.4v11.1h13.6v3.7zM788.8 598.6h-13.6v12.6h15.2v3.8h-19.7v-35h18.9v3.8h-14.4v11.1h13.6v3.7zM796.2 615v-35h4.9l11.2 17.7c2.6 4.1 4.6 7.8 6.3 11.4l.1-.1c-.4-4.7-.5-8.9-.5-14.4V580h4.3v35H818l-11.1-17.8c-2.4-3.9-4.8-7.9-6.6-11.7l-.2.1c.3 4.4.4 8.6.4 14.5v15h-4.3z"/></g></svg>
